<?xml version="1.0" ?><!DOCTYPE svg  PUBLIC '-//W3C//DTD SVG 1.1//EN'  'http://www.w3.org/Graphics/SVG/1.1/DTD/svg11.dtd'><svg enable-background="new 0 0 256 256" height="256px" id="abacus" version="1.1" viewBox="0 0 256 256" width="256px" xml:space="preserve" xmlns="http://www.w3.org/2000/svg" xmlns:xlink="http://www.w3.org/1999/xlink"><linearGradient gradientUnits="userSpaceOnUse" id="SVGID_1_" x1="127.4155" x2="127.4155" y1="51.917" y2="65.4397"><stop offset="0" style="stop-color:#97671B"/><stop offset="1" style="stop-color:#7E520C"/></linearGradient><rect fill="url(#SVGID_1_)" height="11.66" width="186.562" x="34.135" y="55.415"/><rect fill="#2C2C2C" height="2.284" opacity="0.1" width="186.562" x="34.135" y="64.791"/><linearGradient gradientUnits="userSpaceOnUse" id="SVGID_2_" x1="127.4155" x2="127.4155" y1="105.5547" y2="124.2473"><stop offset="0" style="stop-color:#97671B"/><stop offset="1" style="stop-color:#7E520C"/></linearGradient><rect fill="url(#SVGID_2_)" height="11.66" width="186.562" x="34.135" y="111.385"/><rect fill="#2C2C2C" height="2.284" opacity="0.1" width="186.562" x="34.135" y="120.761"/><linearGradient gradientUnits="userSpaceOnUse" id="SVGID_3_" x1="127.4155" x2="127.4155" y1="165.0215" y2="180.1896"><stop offset="0" style="stop-color:#97671B"/><stop offset="1" style="stop-color:#7E520C"/></linearGradient><rect fill="url(#SVGID_3_)" height="11.659" width="186.562" x="34.135" y="167.354"/><rect fill="#2C2C2C" height="2.286" opacity="0.1" width="186.562" x="34.135" y="176.727"/><linearGradient gradientUnits="userSpaceOnUse" id="SVGID_4_" x1="26.3203" x2="53.3691" y1="125.2476" y2="125.2476"><stop offset="0" style="stop-color:#DA8856"/><stop offset="1" style="stop-color:#C16D3C"/></linearGradient><path clip-rule="evenodd" d="M53.369,214.911c0,5.765-4.718,10.484-10.484,10.484h-6.081  c-5.766,0-10.483-4.72-10.483-10.484V35.583c0-5.766,4.718-10.483,10.483-10.483h6.081c5.767,0,10.484,4.718,10.484,10.483V214.911z  " fill="url(#SVGID_4_)" fill-rule="evenodd"/><linearGradient gradientUnits="userSpaceOnUse" id="SVGID_5_" x1="202.6025" x2="229.6562" y1="125.2476" y2="125.2476"><stop offset="0" style="stop-color:#DA8856"/><stop offset="1" style="stop-color:#C16D3C"/></linearGradient><path clip-rule="evenodd" d="M229.656,214.911c0,5.765-4.718,10.484-10.483,10.484  h-6.087c-5.766,0-10.483-4.72-10.483-10.484V35.583c0-5.766,4.718-10.483,10.483-10.483h6.087c5.766,0,10.483,4.718,10.483,10.483  V214.911z" fill="url(#SVGID_5_)" fill-rule="evenodd"/><path d="M26,214.751C26,220.41,30.952,225,36.615,225h6.462  c5.661,0,9.923-4.59,9.923-10.249V210H26V214.751z M203,210v4.751c0,5.659,4.235,10.249,9.897,10.249h6.466  c5.657,0,10.637-4.59,10.637-10.249V210H203z" fill="#2C2C2C" id="_x3C_路径_x3E__3_" opacity="0.1"/><linearGradient gradientUnits="userSpaceOnUse" id="SVGID_6_" x1="127.9995" x2="127.9995" y1="208.9258" y2="230.1964"><stop offset="0" style="stop-color:#DA8856"/><stop offset="1" style="stop-color:#C16D3C"/></linearGradient><path d="M255,225.192c0,3.141-2.569,5.708-5.711,5.708H6.71c-3.141,0-5.71-2.567-5.71-5.708v-8.402  c0-3.141,2.569-5.71,5.71-5.71h242.579c3.142,0,5.711,2.569,5.711,5.71V225.192z" fill="url(#SVGID_6_)"/><path d="M249.289,228.618H6.711c-3.142,0-5.711-2.571-5.711-5.712v2.284  c0,3.141,2.569,5.71,5.711,5.71h242.578c3.14,0,5.711-2.569,5.711-5.71v-2.284C255,226.047,252.429,228.618,249.289,228.618z" fill="#2C2C2C" opacity="0.1"/><linearGradient gradientUnits="userSpaceOnUse" id="SVGID_7_" x1="73.1963" x2="95.3496" y1="60.0781" y2="60.0781"><stop offset="0" style="stop-color:#54BDF1"/><stop offset="1" style="stop-color:#3AA5D9"/></linearGradient><path d="M95.35,67.87c0,6.617-4.985,12.03-11.077,12.03s-11.076-5.413-11.076-12.03V52.285  c0-6.616,4.984-12.029,11.076-12.029S95.35,45.669,95.35,52.285V67.87z" fill="url(#SVGID_7_)"/><linearGradient gradientUnits="userSpaceOnUse" id="SVGID_8_" x1="104.6797" x2="126.833" y1="60.0781" y2="60.0781"><stop offset="0" style="stop-color:#54BDF1"/><stop offset="1" style="stop-color:#3AA5D9"/></linearGradient><path d="M126.833,67.87c0,6.617-4.984,12.03-11.076,12.03s-11.077-5.413-11.077-12.03V52.285  c0-6.616,4.985-12.029,11.077-12.029s11.076,5.413,11.076,12.029V67.87z" fill="url(#SVGID_8_)"/><linearGradient gradientUnits="userSpaceOnUse" id="SVGID_9_" x1="154.2354" x2="181.0526" y1="60.0781" y2="60.0781"><stop offset="0" style="stop-color:#54BDF1"/><stop offset="1" style="stop-color:#3AA5D9"/></linearGradient><path d="M179.304,67.87c0,6.617-4.985,12.03-11.077,12.03s-11.076-5.413-11.076-12.03V52.285  c0-6.616,4.984-12.029,11.076-12.029s11.077,5.413,11.077,12.029V67.87z" fill="url(#SVGID_9_)"/><path d="M168.226,77.617c-6.091,0-11.075-5.413-11.075-12.029v2.284  c0,6.616,4.984,12.028,11.075,12.028c6.095,0,11.078-5.412,11.078-12.028v-2.284C179.304,72.204,174.32,77.617,168.226,77.617z   M84.274,77.617c-6.094,0-11.078-5.413-11.078-12.029v2.284c0,6.616,4.984,12.028,11.078,12.028S95.35,74.488,95.35,67.872v-2.284  C95.35,72.204,90.368,77.617,84.274,77.617z M115.758,77.617c-6.092,0-11.078-5.413-11.078-12.029v2.284  c0,6.616,4.986,12.028,11.078,12.028c6.091,0,11.075-5.412,11.075-12.028v-2.284C126.833,72.204,121.849,77.617,115.758,77.617z" fill="#2C2C2C" id="_x3C_路径_x3E__2_" opacity="0.1"/><linearGradient gradientUnits="userSpaceOnUse" id="SVGID_10_" x1="89.5205" x2="89.5205" y1="99.4443" y2="137.544"><stop offset="0" style="stop-color:#5AE050"/><stop offset="1" style="stop-color:#40D437"/></linearGradient><path d="M100.598,125.008c0,6.616-4.984,12.028-11.078,12.028c-6.092,0-11.076-5.412-11.076-12.028v-15.586  c0-6.616,4.984-12.029,11.076-12.029c6.094,0,11.078,5.413,11.078,12.029V125.008z" fill="url(#SVGID_10_)"/><linearGradient gradientUnits="userSpaceOnUse" id="SVGID_11_" x1="141.9922" x2="141.9922" y1="99.4443" y2="137.544"><stop offset="0" style="stop-color:#5AE050"/><stop offset="1" style="stop-color:#40D437"/></linearGradient><path d="M153.071,125.008c0,6.616-4.984,12.028-11.078,12.028c-6.095,0-11.08-5.412-11.08-12.028v-15.586  c0-6.616,4.985-12.029,11.08-12.029c6.094,0,11.078,5.413,11.078,12.029V125.008z" fill="url(#SVGID_11_)"/><path d="M89.521,134.753c-6.092,0-11.078-5.413-11.078-12.03v2.284  c0,6.617,4.986,12.029,11.078,12.029s11.076-5.412,11.076-12.029v-2.284C100.598,129.34,95.613,134.753,89.521,134.753z   M141.99,134.753c-6.092,0-11.077-5.413-11.077-12.03v2.284c0,6.617,4.985,12.029,11.077,12.029c6.093,0,11.081-5.412,11.081-12.029  v-2.284C153.071,129.34,148.083,134.753,141.99,134.753z" fill="#2C2C2C" id="_x3C_路径_x3E__1_" opacity="0.1"/><linearGradient gradientUnits="userSpaceOnUse" id="SVGID_12_" x1="78.4448" x2="78.4448" y1="153.1211" y2="190.0566"><stop offset="0" style="stop-color:#F15454"/><stop offset="1" style="stop-color:#D93B3B"/></linearGradient><path d="M89.522,180.975c0,6.617-4.984,12.029-11.078,12.029c-6.093,0-11.077-5.412-11.077-12.029v-15.584  c0-6.618,4.984-12.03,11.077-12.03c6.094,0,11.078,5.412,11.078,12.03V180.975z" fill="url(#SVGID_12_)"/><linearGradient gradientUnits="userSpaceOnUse" id="SVGID_13_" x1="109.9258" x2="109.9258" y1="153.1211" y2="190.0566"><stop offset="0" style="stop-color:#F15454"/><stop offset="1" style="stop-color:#D93B3B"/></linearGradient><path d="M121.005,180.975c0,6.617-4.984,12.029-11.078,12.029c-6.095,0-11.08-5.412-11.08-12.029v-15.584  c0-6.618,4.985-12.03,11.08-12.03c6.094,0,11.078,5.412,11.078,12.03V180.975z" fill="url(#SVGID_13_)"/><linearGradient gradientUnits="userSpaceOnUse" id="SVGID_14_" x1="162.3975" x2="162.3975" y1="153.1211" y2="190.0566"><stop offset="0" style="stop-color:#F15454"/><stop offset="1" style="stop-color:#D93B3B"/></linearGradient><path d="M173.476,180.975c0,6.617-4.985,12.029-11.078,12.029c-6.094,0-11.078-5.412-11.078-12.029v-15.584  c0-6.618,4.984-12.03,11.078-12.03c6.093,0,11.078,5.412,11.078,12.03V180.975z" fill="url(#SVGID_14_)"/><path d="M78.446,190.722c-6.095,0-11.079-5.415-11.079-12.029v2.282  c0,6.616,4.984,12.029,11.079,12.029c6.092,0,11.076-5.413,11.076-12.029v-2.282C89.522,185.307,84.538,190.722,78.446,190.722z   M109.925,190.722c-6.09,0-11.078-5.415-11.078-12.029v2.282c0,6.616,4.988,12.029,11.078,12.029c6.096,0,11.08-5.413,11.08-12.029  v-2.282C121.005,185.307,116.021,190.722,109.925,190.722z M162.397,190.722c-6.092,0-11.078-5.415-11.078-12.029v2.282  c0,6.616,4.986,12.029,11.078,12.029c6.093,0,11.078-5.413,11.078-12.029v-2.282C173.476,185.307,168.49,190.722,162.397,190.722z" fill="#2C2C2C" id="_x3C_路径_x3E_" opacity="0.1"/></svg>