<?xml version="1.0" ?><!DOCTYPE svg  PUBLIC '-//W3C//DTD SVG 1.1//EN'  'http://www.w3.org/Graphics/SVG/1.1/DTD/svg11.dtd'><svg enable-background="new 0 0 100 100" height="100px" id="Layer_1" version="1.1" viewBox="0 0 100 100" width="100px" xml:space="preserve" xmlns="http://www.w3.org/2000/svg" xmlns:xlink="http://www.w3.org/1999/xlink"><g><polygon fill="#27AAE1" points="69.078,59.224 45.431,59.224 45.431,70.063 70.501,70.063 78.938,78.501 78.938,70.063    91.949,70.063 91.949,38.966 69.078,38.966  "/><path d="M69.078,35.915V14.133H5v45.091h16.019v15.202L36.22,59.224h6.159v13.892h26.858L81.99,85.867V73.115H95v-37.2H69.078z    M91.949,70.063H78.938v8.438l-8.438-8.438h-25.07v-10.84h23.647V38.966h22.871V70.063z M24.069,67.058V56.172H8.052V17.184h57.976   v38.988H34.955L24.069,67.058z"/><polygon fill="#FFDE17" points="66.027,56.172 66.027,17.184 8.052,17.184 8.052,56.172 24.069,56.172 24.069,67.058    34.955,56.172  "/></g></svg>