<?xml version="1.0" ?><!DOCTYPE svg  PUBLIC '-//W3C//DTD SVG 1.0//EN'  'http://www.w3.org/TR/2001/REC-SVG-20010904/DTD/svg10.dtd'><svg enable-background="new 0 0 32 32" height="32px" id="Layer_1" version="1.0" viewBox="0 0 32 32" width="32px" xml:space="preserve" xmlns="http://www.w3.org/2000/svg" xmlns:xlink="http://www.w3.org/1999/xlink"><g><path d="M7,0.005c-3.866,0-7,3.134-7,7v9h14v-9C14,3.139,10.866,0.005,7,0.005z" fill="#434854"/><path d="M25,0.005H7c3.866,0,7,3.134,7,7v9h18v-9C32,3.139,28.866,0.005,25,0.005z" fill="#469FCC"/><path d="M29.867,2.005c-1.259-1.229-2.967-2-4.867-2H7c1.9,0,3.608,0.771,4.867,2H29.867z" fill="#FFFFFF" opacity="0.2"/><path d="M14,6.005H5c-0.553,0-1,0.447-1,1v9h10V6.005z" fill="#EDD87E"/><path d="M9,6.005h4.921C13.438,2.642,10.57,0.05,7.083,0.009C8.279,1.449,9,3.299,9,5.317V6.005z" opacity="0.3"/><polygon fill="#EF4D4D" points="8,6.005 8,10.005 9,9.005 10,10.005 10,6.005  "/><path d="M9,6.005v10h5v-9c0-0.341-0.032-0.673-0.079-1H9z" opacity="0.1"/><path d="M25,4.005h-4c-1.104,0-2,0.896-2,2v2.277c-0.596,0.347-1,0.984-1,1.723c0,1.104,0.896,2,2,2s2-0.896,2-2   c0-0.738-0.404-1.376-1-1.723V6.005h5v-1C26,4.452,25.553,4.005,25,4.005z" fill="#EAEAEA"/><circle cx="20" cy="10.005" fill="#434854" r="1"/><g opacity="0.2"><path d="M20,12.005c-0.931,0-1.706-0.639-1.93-1.5c-0.041,0.161-0.07,0.326-0.07,0.5c0,1.104,0.896,2,2,2s2-0.896,2-2    c0-0.174-0.029-0.339-0.07-0.5C21.706,11.366,20.931,12.005,20,12.005z"/><rect height="1" width="5" x="21" y="6.005"/></g><path d="M14,16.016v14c0,1.104,0.896,2,2,2l0,0c1.104,0,2-0.896,2-2v-14H14z" fill="#E6E6E6"/><rect height="1" opacity="0.1" width="4" x="14" y="16.005"/></g><g/><g/><g/><g/><g/><g/></svg>