<?xml version="1.0" ?><!DOCTYPE svg  PUBLIC '-//W3C//DTD SVG 1.1//EN'  'http://www.w3.org/Graphics/SVG/1.1/DTD/svg11.dtd'><svg enable-background="new 0 0 128 128" height="128px" id="Layer_1" version="1.1" viewBox="0 0 128 128" width="128px" xml:space="preserve" xmlns="http://www.w3.org/2000/svg" xmlns:xlink="http://www.w3.org/1999/xlink"><g id="list"><path d="M34,122c-6.617,0-12-5.383-12-12V28c0-6.617,5.383-12,12-12h61c6.617,0,12,5.383,12,12v82   c0,6.617-5.383,12-12,12H34z" fill="#AD5D31"/><path d="M102,33c0-4.4-3.6-8-8-8H35c-4.4,0-8,3.6-8,8v76c0,4.4,3.6,8,8,8h59c4.4,0,8-3.6,8-8V33z" fill="#EDEDED"/><path d="M102,29c0-4.4-3.6-8-8-8H35c-4.4,0-8,3.6-8,8v76c0,4.4,3.6,8,8,8h59c4.4,0,8-3.6,8-8V29z" fill="#D0D0D0"/><path d="M102,29c0-4.4-3.6-8-8-8H35c-4.4,0-8,3.6-8,8v72c0,4.4,3.6,8,8,8h50l17-17V29z" fill="#EDEDED"/><path d="M56,28h18c3.309,0,6-2.691,6-6v-6H50v6C50,25.309,52.691,28,56,28z" opacity="0.1"/><path d="M74,12h-1.333c0-4.234-3.432-7.667-7.667-7.667S57.333,7.766,57.333,12H56c-2.2,0-4,1.8-4,4v6   c0,2.2,1.8,4,4,4h18c2.2,0,4-1.8,4-4v-6C78,13.8,76.2,12,74,12z M65,8.333c2.022,0,3.667,1.645,3.667,3.667h-7.334   C61.333,9.978,62.978,8.333,65,8.333z" fill="#989898"/><path d="M65,5.333c-2.022,0-3.667,1.645-3.667,3.667h1.57C63.498,8.582,64.219,8.333,65,8.333S66.502,8.582,67.097,9   h1.57C68.667,6.978,67.022,5.333,65,5.333z" opacity="0.1"/><path d="M74,23H56c-2.2,0-4-1.8-4-4v3c0,2.2,1.8,4,4,4h18c2.2,0,4-1.8,4-4v-3C78,21.2,76.2,23,74,23z" opacity="0.1"/><path d="M74,15H56c-2.2,0-4,1-4,1c0-2.2,1.8-4,4-4h18c2.2,0,4,1.8,4,4C78,16,76.2,15,74,15z" fill="#FFFFFF" opacity="0.1"/><path d="M74,15H56c-2.2,0-4,1-4,1c0-2.2,1.8-4,4-4h18c2.2,0,4,1.8,4,4C78,16,76.2,15,74,15z" fill="#FFFFFF" opacity="0.1"/><path d="M65,4.333c-4.234,0-7.667,3.432-7.667,7.667h4c0-2.022,1.645-3.667,3.667-3.667S68.667,9.978,68.667,12h4   C72.667,7.766,69.234,4.333,65,4.333z" opacity="0.1"/><path d="M89,45H60c-1.104,0-2-0.896-2-2s0.896-2,2-2h29c1.104,0,2,0.896,2,2S90.104,45,89,45z" fill="#4E697F"/><path d="M89,62H60c-1.104,0-2-0.896-2-2s0.896-2,2-2h29c1.104,0,2,0.896,2,2S90.104,62,89,62z" fill="#4E697F"/><path d="M89,79H60c-1.104,0-2-0.896-2-2s0.896-2,2-2h29c1.104,0,2,0.896,2,2S90.104,79,89,79z" fill="#4E697F"/><path d="M89,96H60c-1.104,0-2-0.896-2-2s0.896-2,2-2h29c1.104,0,2,0.896,2,2S90.104,96,89,96z" fill="#4E697F"/><path d="M46,90c-2.209,0-4,1.791-4,4c0,2.209,1.791,4,4,4s4-1.791,4-4C50,91.791,48.209,90,46,90z" fill="#F2BA34"/><path d="M46,73c-2.209,0-4,1.791-4,4c0,2.209,1.791,4,4,4s4-1.791,4-4C50,74.791,48.209,73,46,73z" fill="#F2BA34"/><path d="M53.164,54.336c-0.781-0.781-2.047-0.781-2.828,0l-5.211,5.211l-2.711-2.711   c-0.781-0.781-2.047-0.781-2.828,0s-0.781,2.047,0,2.828l4.125,4.125c0.391,0.391,0.902,0.586,1.414,0.586s1.023-0.195,1.414-0.586   l6.625-6.625C53.945,56.383,53.945,55.117,53.164,54.336z" fill="#DD5345"/><path d="M53.164,37.336c-0.781-0.781-2.047-0.781-2.828,0l-5.211,5.211l-2.711-2.711   c-0.781-0.781-2.047-0.781-2.828,0s-0.781,2.047,0,2.828l4.125,4.125c0.391,0.391,0.902,0.586,1.414,0.586s1.023-0.195,1.414-0.586   l6.625-6.625C53.945,39.383,53.945,38.117,53.164,37.336z" fill="#DD5345"/><path d="M102,92h-9.355C88.245,92,85,95.245,85,99.645V109L102,92z" fill="#989898"/></g></svg>