<?xml version="1.0" ?><!DOCTYPE svg  PUBLIC '-//W3C//DTD SVG 1.1//EN'  'http://www.w3.org/Graphics/SVG/1.1/DTD/svg11.dtd'><svg enable-background="new 0 0 128 128" height="128px" id="Layer_1" version="1.1" viewBox="0 0 128 128" width="128px" xml:space="preserve" xmlns="http://www.w3.org/2000/svg" xmlns:xlink="http://www.w3.org/1999/xlink"><g id="strategy"><path d="M87.178,113.07l-19.5-25.5c-0.842-1.099-2.142-1.641-3.428-1.562c-0.045-0.003-0.091,0.004-0.136,0.003   C64.075,86.01,64.039,86,64,86c-0.085,0-0.164,0.02-0.247,0.025c-0.14,0.009-0.279,0.019-0.417,0.042   c-0.13,0.022-0.255,0.054-0.381,0.089c-0.122,0.033-0.243,0.068-0.362,0.112c-0.126,0.047-0.245,0.104-0.365,0.163   c-0.112,0.056-0.223,0.113-0.33,0.179c-0.114,0.071-0.221,0.15-0.327,0.232c-0.099,0.076-0.196,0.152-0.289,0.238   c-0.105,0.097-0.198,0.203-0.292,0.311c-0.054,0.062-0.117,0.113-0.168,0.179l-19.5,25.5c-1.342,1.755-1.007,4.266,0.748,5.607   c0.726,0.555,1.579,0.822,2.427,0.822c1.203,0,2.393-0.541,3.181-1.57L60,101.816V116c0,2.209,1.791,4,4,4s4-1.791,4-4v-14.838   l12.822,16.768c0.788,1.029,1.978,1.57,3.181,1.57c0.848,0,1.701-0.268,2.427-0.822C88.185,117.336,88.52,114.825,87.178,113.07z" fill="#AD5D31"/><path d="M64,117c-2.209,0-4-1.791-4-4v3c0,2.209,1.791,4,4,4s4-1.791,4-4v-3C68,115.209,66.209,117,64,117z" fill="#854114"/><path d="M67.178,89.43l-19.5,25.5c-0.788,1.029-1.978,1.57-3.181,1.57c-0.848,0-1.701-0.268-2.427-0.822   c-0.588-0.45-1.002-1.037-1.261-1.677c-0.661,1.629-0.203,3.558,1.261,4.677c0.726,0.555,1.579,0.822,2.427,0.822   c1.203,0,2.393-0.541,3.181-1.57l19.5-25.5c0.892-1.166,1.028-2.661,0.513-3.93C67.56,88.823,67.4,89.139,67.178,89.43z" fill="#854114"/><path d="M86.43,115.678c-0.726,0.555-1.579,0.822-2.427,0.822c-1.203,0-2.393-0.541-3.181-1.57l-19.5-25.5   c-0.222-0.291-0.382-0.607-0.513-0.93c-0.514,1.269-0.378,2.764,0.513,3.93l19.5,25.5c0.788,1.029,1.978,1.57,3.181,1.57   c0.848,0,1.701-0.268,2.427-0.822c1.464-1.119,1.923-3.048,1.261-4.677C87.432,114.641,87.018,115.228,86.43,115.678z" fill="#854114"/><path d="M116.536,9H11.13c-3.754,0-6.797,3.246-6.797,7s3.043,7,6.797,7h105.406c3.754,0,6.797-3.246,6.797-7   S120.291,9,116.536,9z" fill="#253B4B"/><path d="M67.678,87.57c-0.842-1.099-2.142-1.641-3.428-1.562c-0.045-0.003-0.091,0.004-0.136,0.003   C64.075,86.01,64.039,86,64,86c-0.085,0-0.164,0.02-0.247,0.025c-0.14,0.009-0.279,0.019-0.417,0.042   c-0.13,0.022-0.255,0.054-0.381,0.089c-0.122,0.033-0.243,0.068-0.362,0.112c-0.126,0.047-0.245,0.104-0.365,0.163   c-0.112,0.056-0.223,0.113-0.33,0.179c-0.114,0.071-0.221,0.15-0.327,0.232c-0.099,0.076-0.196,0.152-0.289,0.238   c-0.105,0.097-0.198,0.203-0.292,0.311c-0.054,0.062-0.117,0.113-0.168,0.179L48.258,104H58.33l1.67-2.184V104h8v-2.838L70.17,104   h10.072L67.678,87.57z" opacity="0.1"/><path d="M109,100H19c-4.418,0-8-3.582-8-8V23h106v69C117,96.418,113.418,100,109,100z" fill="#EDEDED"/><path d="M11,26.993C11.044,26.994,11.086,27,11.13,27h105.406c0.156,0,0.31-0.014,0.464-0.025V23H11V26.993z" opacity="0.1"/><path d="M109,96H19c-4.418,0-8-3.582-8-8v4c0,4.418,3.582,8,8,8h90c4.418,0,8-3.582,8-8v-4   C117,92.418,113.418,96,109,96z" fill="#EDEDED"/><path d="M41.422,48.076l-6.6-2.794l2.793-6.6c0.289-0.683,0.274-1.419,0.016-2.056s-0.76-1.176-1.442-1.465   c-1.366-0.579-2.942,0.06-3.52,1.426l-2.793,6.599l-6.6-2.794c-1.365-0.578-2.943,0.061-3.52,1.426   c-0.578,1.366,0.06,2.942,1.427,3.521l6.599,2.793l-2.794,6.6c-0.578,1.365,0.061,2.943,1.426,3.52   c1.366,0.578,2.942-0.06,3.521-1.427l2.793-6.6l6.6,2.793c0.683,0.289,1.419,0.274,2.056,0.016s1.176-0.76,1.465-1.442   C43.427,50.231,42.788,48.655,41.422,48.076z" fill="#79BD8F"/><path d="M106.831,52.454l-7.039-1.347l1.347-7.039c0.14-0.728-0.03-1.445-0.416-2.013   c-0.386-0.569-0.989-0.99-1.718-1.129c-1.457-0.279-2.864,0.676-3.143,2.133l-1.347,7.039l-7.039-1.347   c-1.456-0.279-2.864,0.677-3.142,2.133c-0.279,1.457,0.676,2.864,2.134,3.143l7.039,1.347l-1.347,7.039   c-0.279,1.456,0.677,2.864,2.133,3.142c1.457,0.279,2.864-0.676,3.143-2.134l1.347-7.039l7.039,1.347   c0.728,0.14,1.445-0.03,2.013-0.416c0.569-0.386,0.99-0.989,1.129-1.718C109.243,54.14,108.288,52.732,106.831,52.454z" fill="#79BD8F"/><path d="M88.146,75.278l-7.09,1.044l-1.044-7.09c-0.108-0.734-0.503-1.354-1.055-1.764   c-0.552-0.41-1.26-0.61-1.994-0.501c-1.468,0.216-2.482,1.581-2.266,3.049l1.044,7.09l-7.09,1.044   c-1.467,0.215-2.482,1.582-2.266,3.048c0.216,1.468,1.581,2.482,3.049,2.266l7.09-1.044l1.044,7.09   c0.215,1.467,1.582,2.482,3.048,2.266c1.468-0.216,2.482-1.581,2.266-3.049l-1.044-7.09l7.09-1.044   c0.734-0.108,1.354-0.503,1.764-1.055s0.61-1.26,0.501-1.994C90.979,76.077,89.614,75.062,88.146,75.278z" fill="#79BD8F"/><path d="M77.983,39.732c-0.074-0.05-0.155-0.098-0.248-0.141L65.76,34.016c-1.345-0.626-2.942-0.043-3.569,1.301   c-0.128,0.274-0.205,0.56-0.236,0.844c-0.12,1.112,0.467,2.226,1.538,2.724l5.577,2.596c-4.383,1.602-10.141,4.244-15.227,8.323   c-7.206,5.78-10.678,14.122-11.993,18.048c-2.27-0.492-4.706-0.327-7.014,0.628c-6.035,2.497-8.902,9.414-6.405,15.449   c2.497,6.035,9.414,8.902,15.449,6.404c6.035-2.497,8.902-9.414,6.405-15.449c-0.791-1.911-2.027-3.502-3.536-4.708   c0.931-2.938,3.948-10.962,10.455-16.182c4.761-3.819,10.321-6.262,14.361-7.688l-3.451,7.181c-0.136,0.283-0.218,0.579-0.25,0.874   c-0.119,1.1,0.454,2.204,1.508,2.71c1.337,0.643,2.942,0.08,3.584-1.257l6.068-12.626c0.012-0.024,0.014-0.046,0.024-0.07   c0.052-0.116,0.09-0.237,0.126-0.36c0.005-0.019,0.014-0.04,0.018-0.06c0.101-0.388,0.127-0.802,0.039-1.222   C79.071,40.716,78.601,40.104,77.983,39.732z M41.826,85.37c-3.288,1.361-7.07-0.207-8.431-3.495   c-1.361-3.288,0.207-7.07,3.495-8.431c3.288-1.361,7.07,0.207,8.431,3.495C46.681,80.227,45.113,84.009,41.826,85.37z" fill="#DD6644"/></g></svg>