<?xml version="1.0" ?><!DOCTYPE svg  PUBLIC '-//W3C//DTD SVG 1.0//EN'  'http://www.w3.org/TR/2001/REC-SVG-20010904/DTD/svg10.dtd'><svg enable-background="new 0 0 32 32" height="32px" id="Layer_1" version="1.0" viewBox="0 0 32 32" width="32px" xml:space="preserve" xmlns="http://www.w3.org/2000/svg" xmlns:xlink="http://www.w3.org/1999/xlink"><g><path d="M16-0.001c0,0-8,8-8,17c0,8,2,10,2,10c0.453,0.516,0.812,1,1.5,1h9c0.641,0,1.05-0.432,1.5-1c0,0,2-2,2-10   C24,7.999,16-0.001,16-0.001z" fill="#469FCC"/><path d="M29,22.999l-5.008-5.509C23.91,25.068,22,26.999,22,26.999c-0.221,0.278-0.432,0.522-0.665,0.7l7.665,2.3   c0.531,0.125,1-0.447,1-1v-4C30,24.218,29.5,23.53,29,22.999z" fill="#434854"/><path d="M10,26.974c0,0-1.91-1.931-1.992-9.509L3,22.974c-0.5,0.531-1,1.219-1,2v4c0,0.553,0.469,1.156,1,1   l7.671-2.302C10.436,27.486,10.229,27.234,10,26.974z" fill="#434854"/><path d="M14.184,27.999c-0.108,0.314-0.184,0.647-0.184,1c0,1.657,1.447,3,2,3s2-1.343,2-3   c0-0.353-0.075-0.686-0.184-1H14.184z" fill="#EACA44"/><path d="M15.203,27.999c-0.203,0.406-0.203,1-0.203,1c0,0.883,0.634,1.655,1,1.93c0.366-0.274,1-1.047,1-1.93   c0,0-0.031-0.641-0.203-1H15.203z" fill="#EF4D4D"/><g opacity="0.3"><path d="M24.021,17.458c-0.082,7.578-1.992,9.509-1.992,9.509c-0.221,0.278-0.432,0.522-0.665,0.7l1.105,0.332    c0.121-0.135,0.229-0.267,0.32-0.382c0.368-0.411,1.981-2.578,2.21-9.083L24.021,17.458z"/><path d="M9.971,26.972c0,0-1.91-1.931-1.992-9.509L7,18.54c0.232,6.63,1.904,8.753,2.23,9.104l0.095,0.108    c0.068,0.078,0.142,0.162,0.219,0.246l1.098-0.329C10.405,27.483,10.2,27.232,9.971,26.972z"/></g><path d="M16,7.999c-2.209,0-4,1.791-4,4s1.791,4,4,4s4-1.791,4-4S18.209,7.999,16,7.999z M16,14.999   c-1.657,0-3-1.343-3-3s1.343-3,3-3s3,1.343,3,3S17.657,14.999,16,14.999z" fill="#FFFFFF"/><circle cx="16" cy="11.999" fill="#434854" r="3"/><path d="M16,9.999c1.142,0,2.165,0.483,2.895,1.251C18.56,9.958,17.396,8.999,16,8.999s-2.56,0.959-2.895,2.251   C13.835,10.482,14.858,9.999,16,9.999z" opacity="0.3"/><path d="M8.322,21.999h15.355c0.087-0.597,0.158-1.267,0.213-2H8.109C8.164,20.732,8.235,21.402,8.322,21.999z" fill="#DAE2E5"/></g><g/><g/><g/><g/><g/><g/></svg>