<?xml version="1.0" ?><!DOCTYPE svg  PUBLIC '-//W3C//DTD SVG 1.1//EN'  'http://www.w3.org/Graphics/SVG/1.1/DTD/svg11.dtd'><svg enable-background="new 0 0 128 128" id="Слой_1" version="1.1" viewBox="0 0 128 128" xml:space="preserve" xmlns="http://www.w3.org/2000/svg" xmlns:xlink="http://www.w3.org/1999/xlink"><g><g><g><path d="M52,109.7L52,109.7c-5.5,0-10-4.5-10-10v-56h20v56C62,105.2,57.5,109.7,52,109.7z" fill="#F5C93F"/></g></g><g opacity="0.3"><g><path d="M51.5,104.7c-2.6-0.3-4.5-2.6-4.5-5.2V65.7c0-2.8,2.2-5,5-5h0c2.8,0,5,2.2,5,5v34     C57,102.6,54.5,105,51.5,104.7z" fill="#050708"/></g></g><g opacity="0.3"><g><path d="M42,56c3,1.5,6.4,2.4,10,2.4s7-0.9,10-2.4V43.7H42V56z" fill="#050708"/></g></g><g><g><path d="M60.5,18.3v14.6c0,4.7-3.8,8.5-8.5,8.5s-8.5-3.8-8.5-8.5V18.3C36.7,21.5,32,28.4,32,36.4c0,11,9,20,20,20     s20-9,20-20C72,28.4,67.3,21.5,60.5,18.3z" fill="#44474A"/></g></g><g><g><path d="M84.5,63.7h-5V32.6c0-1.5-0.6-2.9-1.6-3.9v0c-0.2-0.2-0.3-0.6-0.3-0.9l1.9-9.5h5l1.9,9.5     c0.1,0.3,0,0.7-0.3,0.9v0c-1,1-1.6,2.4-1.6,3.9V63.7z" fill="#44474A"/></g></g><g opacity="0.3"><g><rect fill="#050708" height="2" width="5" x="79.5" y="61.7"/></g></g><g><g><path d="M92,70.7v-7H72v7c1.7,0,3,1.3,3,3s-1.3,3-3,3v23c0,5.5,4.5,10,10,10s10-4.5,10-10v-23c-1.6,0-3-1.3-3-3     S90.4,70.7,92,70.7z" fill="#C45C44"/></g></g><g opacity="0.1"><g><path d="M75,73.7c0,1.6-1.3,3-3,3h20c-1.6,0-3-1.3-3-3s1.3-3,3-3v0H72C73.7,70.7,75,72.1,75,73.7z" fill="#050708"/></g></g><g opacity="0.1"><g><path d="M75,73.7c0,1.6-1.3,3-3,3h20c-1.6,0-3-1.3-3-3s1.3-3,3-3v0H72C73.7,70.7,75,72.1,75,73.7z" fill="#050708"/></g></g><g opacity="0.3"><g><polygon fill="#050708" points="86.1,26.3 84.5,18.3 79.5,18.3 77.9,26.3    "/></g></g><g opacity="0.1"><g><path d="M74.5,97.3c0,1.4,1.1,2.5,2.5,2.5s2.5-1.1,2.5-2.5V76.7h-5V97.3z" fill="#050708"/></g></g><g opacity="0.1"><g><rect fill="#050708" height="7" width="5" x="74.5" y="63.7"/></g></g><g opacity="0.1"><g><path d="M84.5,97.3c0,1.4,1.1,2.5,2.5,2.5s2.5-1.1,2.5-2.5V76.7h-5V97.3z" fill="#050708"/></g></g><g opacity="0.1"><g><rect fill="#050708" height="7" width="5" x="84.5" y="63.7"/></g></g></g></svg>