<?xml version="1.0" ?><!DOCTYPE svg  PUBLIC '-//W3C//DTD SVG 1.1//EN'  'http://www.w3.org/Graphics/SVG/1.1/DTD/svg11.dtd'><svg enable-background="new 0 0 40 40" version="1.1" viewBox="0 0 40 40" xml:space="preserve" xmlns="http://www.w3.org/2000/svg" xmlns:xlink="http://www.w3.org/1999/xlink"><g id="Devices"><rect clip-rule="evenodd" fill="#7F8C8D" fill-rule="evenodd" height="4" width="3" x="25" y="-1"/><path clip-rule="evenodd" d="M25,2v2H11v31h17c0,0,0-20.3,0-21.4V2H25z" fill="#302E2E" fill-rule="evenodd"/><path clip-rule="evenodd" d="M18,33h3v-2h-3V33z M14,24h3v-2h-3V24z M18,30h3v-2h-3V30z M14,27   h3v-2h-3V27z M14,30h3v-2h-3V30z M18,24h3v-2h-3V24z M22,22v2h3v-2H22z M22,27h3v-2h-3V27z M22,30h3v-2h-3V30z M18,27h3v-2h-3V27z" fill="#1ABC9C" fill-rule="evenodd"/><rect clip-rule="evenodd" fill="#E74C3C" fill-rule="evenodd" height="6" width="11" x="14" y="11"/><rect clip-rule="evenodd" fill="#E74C3C" fill-rule="evenodd" height="2" width="3" x="22" y="19"/><rect clip-rule="evenodd" fill="#F1C40F" fill-rule="evenodd" height="2" width="3" x="14" y="19"/><circle clip-rule="evenodd" cx="19.5" cy="6.5" fill="#211F1F" fill-rule="evenodd" r="0.5"/><circle clip-rule="evenodd" cx="19.5" cy="8.5" fill="#211F1F" fill-rule="evenodd" r="0.5"/><circle clip-rule="evenodd" cx="20.5" cy="7.5" fill="#211F1F" fill-rule="evenodd" r="0.5"/><circle clip-rule="evenodd" cx="18.5" cy="7.5" fill="#211F1F" fill-rule="evenodd" r="0.5"/></g><g id="Lockup"/></svg>