<?xml version="1.0" encoding="utf-8"?>
<!-- Generator: Adobe Illustrator 17.1.0, SVG Export Plug-In . SVG Version: 6.00 Build 0)  -->
<!DOCTYPE svg PUBLIC "-//W3C//DTD SVG 1.1//EN" "http://www.w3.org/Graphics/SVG/1.1/DTD/svg11.dtd">
<svg version="1.1" id="Layer_1" xmlns="http://www.w3.org/2000/svg" xmlns:xlink="http://www.w3.org/1999/xlink" x="0px" y="0px"
	 viewBox="0 0 955 155" enable-background="new 0 0 955 155" xml:space="preserve">
<g>
	<g>
		<path fill="#F79122" d="M530.6,59.7c-2.3-2.3-6-2.3-8.4,0l-11.8,11.8c-2.3,2.3-2.3,6.1,0,8.4l11.8,11.8c2.3,2.3,6,2.3,8.4,0
			l2.7-2.7L520,75.7l13.3-13.3L530.6,59.7z"/>
		<path fill="#F79122" d="M721.9,59.7c-2.3-2.3-6-2.3-8.4,0l-2.7,2.7l13.3,13.3l-13.3,13.3l2.7,2.7c2.3,2.3,6,2.3,8.4,0l11.8-11.8
			c2.3-2.3,2.3-6.1,0-8.4L721.9,59.7z"/>
		<path fill="#F79122" d="M875.2,62.4l-2.7-2.7c-2.3-2.3-6-2.3-8.4,0l-11.8,11.8c-2.3,2.3-2.3,6.1,0,8.4l11.8,11.8
			c2.3,2.3,6,2.3,8.4,0l2.7-2.7l-13.3-13.3L875.2,62.4z"/>
		<g>
			<path fill="#DB4A26" d="M206,74.3l-11.3,10.3v26.8c0,1-0.4,1.9-1.1,2.6c-0.7,0.7-1.6,1.1-2.6,1.1c-1,0-1.9-0.4-2.6-1.1
				c-0.7-0.7-1.1-1.6-1.1-2.6V43.6c0-1,0.4-1.9,1.1-2.6c0.7-0.7,1.6-1.1,2.6-1.1c1,0,1.9,0.4,2.6,1.1c0.7,0.7,1.1,1.6,1.1,2.6v31.1
				l36.7-33.7c0.7-0.7,1.6-1.1,2.6-1.1c1,0,1.9,0.4,2.6,1.1c0.7,0.7,1.1,1.6,1.1,2.6c0,1-0.4,1.9-1.1,2.6l-25.2,23.1l25.3,40.1
				c0.5,0.9,0.7,1.8,0.5,2.7c-0.2,0.9-0.8,1.7-1.6,2.2c-0.9,0.5-1.8,0.7-2.7,0.5c-0.9-0.2-1.7-0.8-2.2-1.6L206,74.3z"/>
			<path fill="#DB4A26" d="M291.9,91.2h-33l-9.4,21.5c-0.4,0.9-1,1.5-1.9,1.9c-0.9,0.4-1.8,0.5-2.8,0.1c-0.9-0.4-1.6-1-2-1.9
				c-0.4-0.9-0.4-1.8,0-2.8l29.2-67.3c0.2-0.6,0.7-1.2,1.3-1.8c0.6-0.6,1.3-0.9,2.1-0.9c0.8,0,1.5,0.3,2.1,0.8
				c0.6,0.6,1.1,1.2,1.4,1.9l29,67.3c0.4,0.9,0.4,1.9,0,2.8c-0.4,0.9-1.1,1.5-2,1.9c-0.9,0.4-1.9,0.4-2.8-0.1
				c-0.9-0.4-1.5-1.1-1.9-1.9L291.9,91.2z M262.1,83.9h26.6l-13.3-30.3L262.1,83.9z"/>
			<path fill="#DB4A26" d="M311.6,43.6c0-1,0.4-1.9,1.1-2.6c0.7-0.7,1.6-1.1,2.6-1.1c1,0,1.9,0.4,2.6,1.1c0.7,0.7,1.1,1.6,1.1,2.6
				v64.1h29.8c1,0,1.9,0.4,2.6,1.1c0.7,0.7,1.1,1.6,1.1,2.6c0,1-0.4,1.9-1.1,2.6c-0.7,0.7-1.6,1.1-2.6,1.1h-33.4
				c-1,0-1.9-0.4-2.6-1.1c-0.7-0.7-1.1-1.6-1.1-2.6V43.6z"/>
			<path fill="#DB4A26" d="M356,43.6c0-1,0.4-1.9,1.1-2.6c0.7-0.7,1.6-1.1,2.6-1.1h35.7c1,0,1.9,0.4,2.6,1.1
				c0.7,0.7,1.1,1.6,1.1,2.6c0,1-0.4,1.9-1.1,2.6c-0.7,0.7-1.6,1.1-2.6,1.1h-32v26.2h21.4c1,0,1.9,0.4,2.6,1.1
				c0.7,0.7,1.1,1.6,1.1,2.6c0,1-0.4,1.9-1.1,2.6c-0.7,0.7-1.6,1.1-2.6,1.1h-21.4v27h32c1,0,1.9,0.4,2.6,1.1
				c0.7,0.7,1.1,1.6,1.1,2.6c0,1-0.4,1.9-1.1,2.6c-0.7,0.7-1.6,1.1-2.6,1.1h-35.7c-1,0-1.9-0.4-2.6-1.1c-0.7-0.7-1.1-1.6-1.1-2.6
				V43.6z"/>
			<path fill="#DB4A26" d="M404.5,43.6c0-1,0.3-1.9,1.1-2.6c0.7-0.7,1.6-1.1,2.6-1.1c1,0,1.9,0.4,2.6,1.1c0.7,0.7,1.1,1.6,1.1,2.6
				v67.7c0,1-0.4,1.9-1.1,2.6c-0.7,0.7-1.6,1.1-2.6,1.1c-1,0-1.9-0.4-2.6-1.1c-0.7-0.7-1.1-1.6-1.1-2.6V43.6z"/>
			<path fill="#DB4A26" d="M421.5,115c-1,0-1.9-0.4-2.6-1.1c-0.7-0.7-1.1-1.6-1.1-2.6V43.6c0-1,0.4-1.9,1.1-2.6
				c0.7-0.7,1.6-1.1,2.6-1.1h20.2c5.2,0,10,1,14.6,2.9c4.5,2,8.5,4.6,11.9,8c3.4,3.4,6.1,7.4,8,11.9c2,4.5,2.9,9.4,2.9,14.6
				c0,5.2-1,10-2.9,14.6c-2,4.6-4.6,8.6-8,12c-3.4,3.4-7.4,6.1-11.9,8c-4.5,2-9.4,2.9-14.6,2.9H421.5z M471.8,77.4
				c0-4.2-0.8-8.1-2.3-11.7c-1.6-3.7-3.7-6.9-6.5-9.6c-2.7-2.7-5.9-4.9-9.6-6.5c-3.7-1.6-7.6-2.3-11.7-2.3h-16.5v60.4h16.5
				c4.1,0,8.1-0.8,11.7-2.4c3.7-1.6,6.9-3.8,9.6-6.5c2.7-2.7,4.9-5.9,6.5-9.6C471,85.5,471.8,81.6,471.8,77.4z"/>
			<path fill="#DB4A26" d="M484,77.7c0-5.2,1-10,2.9-14.5c2-4.5,4.6-8.5,8-11.9c3.4-3.4,7.3-6.1,11.9-8c4.5-2,9.4-2.9,14.6-2.9
				c5.2,0,10,1,14.6,2.9c4.5,2,8.5,4.6,11.9,8c3.4,3.4,6.1,7.4,8,11.9c2,4.5,2.9,9.4,2.9,14.5c0,5.2-1,10-2.9,14.6
				c-2,4.5-4.6,8.5-8,11.9c-3.4,3.4-7.4,6-11.9,8c-4.5,2-9.4,2.9-14.6,2.9c-5.2,0-10-1-14.6-2.9c-4.5-2-8.5-4.6-11.9-8
				c-3.4-3.4-6-7.3-8-11.9C485,87.7,484,82.8,484,77.7z M491.3,77.7c0,4.2,0.8,8.1,2.3,11.7c1.6,3.7,3.7,6.9,6.4,9.6
				c2.7,2.7,5.9,4.8,9.6,6.4c3.7,1.6,7.6,2.3,11.7,2.3c4.1,0,8.1-0.8,11.7-2.3c3.7-1.6,6.9-3.7,9.6-6.4c2.7-2.7,4.9-5.9,6.5-9.6
				c1.6-3.7,2.3-7.6,2.3-11.7c0-4.1-0.8-8.1-2.3-11.7c-1.6-3.7-3.7-6.9-6.5-9.6c-2.7-2.7-5.9-4.9-9.6-6.5c-3.7-1.6-7.6-2.4-11.7-2.4
				c-4.1,0-8.1,0.8-11.7,2.4c-3.7,1.6-6.9,3.7-9.6,6.5c-2.7,2.7-4.8,6-6.4,9.6C492.1,69.6,491.3,73.5,491.3,77.7z"/>
			<path fill="#DB4A26" d="M587,115c-2.2,0-4.5-0.3-6.9-0.9c-2.4-0.6-4.7-1.4-6.8-2.5c-2.2-1.1-4.1-2.3-5.9-3.8
				c-1.8-1.5-3.1-3.1-4-4.9c-0.5-0.9-0.7-1.9-0.4-2.9c0.3-1,0.9-1.7,1.8-2.3c0.9-0.5,1.9-0.7,2.9-0.4c1,0.3,1.7,0.9,2.3,1.8
				c0.7,1.4,1.7,2.6,3.1,3.7c1.4,1.1,2.9,2,4.5,2.7c1.6,0.7,3.3,1.3,5,1.6c1.7,0.4,3.2,0.5,4.5,0.5c2.1,0,4.2-0.4,6.2-1.2
				c2-0.8,3.8-1.8,5.3-3.2c1.5-1.3,2.8-2.9,3.7-4.8c0.9-1.8,1.4-3.8,1.4-5.9c0-2.1-0.4-4-1.2-5.5c-0.8-1.6-2-2.9-3.5-4.1
				c-1.5-1.2-3.2-2.2-5.3-3.2c-2-0.9-4.2-1.8-6.6-2.6c-2.3-0.7-4.8-1.6-7.5-2.6c-2.6-1.1-5-2.3-7.2-3.8c-2.2-1.5-3.9-3.2-5.3-5.2
				c-1.4-2-2.1-4.3-2.1-6.9c0-3,0.7-5.6,2-7.9c1.3-2.3,3.1-4.3,5.2-5.9c2.1-1.6,4.5-2.8,7.1-3.6c2.6-0.8,5.2-1.2,7.8-1.2
				c1.7,0,3.5,0.1,5.3,0.4c1.8,0.3,3.7,0.8,5.5,1.5c1.8,0.7,3.5,1.7,5.2,2.9c1.7,1.3,3.2,2.9,4.6,4.8c0.6,0.9,0.9,1.9,0.7,3.1
				c-0.2,1.2-0.7,2.1-1.6,2.6c-0.9,0.6-1.9,0.8-2.9,0.5c-1-0.3-1.8-0.9-2.3-1.8c-0.9-1.6-2-2.8-3.3-3.7c-1.3-0.9-2.5-1.6-3.8-2.1
				c-1.3-0.5-2.6-0.8-3.9-0.9c-1.3-0.1-2.4-0.2-3.5-0.2c-1.6,0-3.2,0.2-4.9,0.6c-1.7,0.4-3.3,1-4.8,1.9c-1.5,0.9-2.6,2-3.6,3.5
				c-0.9,1.5-1.4,3.3-1.4,5.5c0,1.6,0.7,3,2.1,4.2c1.4,1.2,3,2.3,5,3.3c2,0.9,4,1.8,6.1,2.5c2.1,0.7,3.9,1.3,5.4,1.9
				c3,1.1,5.7,2.3,8.1,3.5c2.4,1.2,4.5,2.7,6.3,4.5c1.8,1.7,3.1,3.7,4.1,6c1,2.3,1.5,5,1.5,8.1c0,3.1-0.7,6.1-2,8.8
				c-1.3,2.7-3.1,5.1-5.3,7.1c-2.2,2-4.8,3.6-7.7,4.7C593.1,114.4,590.1,115,587,115z"/>
			<path fill="#DB4A26" d="M622.4,77.7c0,4.2,0.8,8.1,2.3,11.7c1.6,3.7,3.7,6.9,6.4,9.6c2.7,2.7,5.9,4.8,9.6,6.4
				c3.7,1.6,7.6,2.3,11.7,2.3c4.4,0,8.5-0.8,12.3-2.5c3.8-1.7,7.1-4,9.8-7c0.6-0.7,1.4-1.2,2.4-1.4c1-0.2,1.9-0.1,2.6,0.5
				c0.9,0.7,1.3,1.7,1.3,2.9c0,1.2-0.4,2.2-1.1,3c-3.4,3.8-7.5,6.7-12.2,8.7c-4.7,2.1-9.7,3.1-15.1,3.1c-5.2,0-10-1-14.6-2.9
				c-4.5-2-8.5-4.6-11.9-8c-3.4-3.4-6-7.3-8-11.9c-2-4.5-2.9-9.4-2.9-14.6c0-5.2,1-10,2.9-14.5c2-4.5,4.6-8.5,8-11.9
				c3.4-3.4,7.3-6.1,11.9-8c4.5-2,9.4-2.9,14.6-2.9c5.2,0,10.1,1,14.7,3.1c4.6,2,8.6,4.8,12,8.3c0.6,0.6,1.1,1.4,1.4,2.3
				c0.3,0.9,0.2,1.8-0.4,2.7c-0.6,0.9-1.5,1.5-2.8,1.5c-1.2,0.1-2.3-0.3-3.1-1.2c-2.8-2.4-6.1-4.6-9.9-6.6c-3.8-2-7.8-2.9-12.1-2.9
				c-4.2,0-8.1,0.8-11.7,2.4c-3.7,1.6-6.9,3.7-9.6,6.5c-2.7,2.7-4.8,6-6.4,9.6C623.2,69.6,622.4,73.5,622.4,77.7z"/>
			<path fill="#DB4A26" d="M685.5,77.7c0-5.2,1-10,2.9-14.5c2-4.5,4.6-8.5,8-11.9c3.4-3.4,7.3-6.1,11.9-8c4.5-2,9.4-2.9,14.6-2.9
				c5.2,0,10,1,14.6,2.9c4.5,2,8.5,4.6,11.9,8c3.4,3.4,6.1,7.4,8,11.9c2,4.5,2.9,9.4,2.9,14.5c0,5.2-1,10-2.9,14.6
				c-2,4.5-4.6,8.5-8,11.9c-3.4,3.4-7.4,6-11.9,8c-4.5,2-9.4,2.9-14.6,2.9c-5.2,0-10-1-14.6-2.9c-4.5-2-8.5-4.6-11.9-8
				c-3.4-3.4-6-7.3-8-11.9C686.5,87.7,685.5,82.8,685.5,77.7z M692.8,77.7c0,4.2,0.8,8.1,2.3,11.7c1.6,3.7,3.7,6.9,6.4,9.6
				c2.7,2.7,5.9,4.8,9.6,6.4c3.7,1.6,7.6,2.3,11.7,2.3c4.1,0,8.1-0.8,11.7-2.3c3.7-1.6,6.9-3.7,9.6-6.4c2.7-2.7,4.9-5.9,6.5-9.6
				c1.6-3.7,2.3-7.6,2.3-11.7c0-4.1-0.8-8.1-2.3-11.7c-1.6-3.7-3.7-6.9-6.5-9.6c-2.7-2.7-5.9-4.9-9.6-6.5c-3.7-1.6-7.6-2.4-11.7-2.4
				c-4.1,0-8.1,0.8-11.7,2.4c-3.7,1.6-6.9,3.7-9.6,6.5c-2.7,2.7-4.8,6-6.4,9.6C693.6,69.6,692.8,73.5,692.8,77.7z"/>
			<path fill="#DB4A26" d="M771.6,80.1v31.2c0,1-0.4,1.9-1.1,2.6c-0.7,0.7-1.6,1.1-2.6,1.1c-1,0-1.9-0.4-2.6-1.1
				c-0.7-0.7-1.1-1.6-1.1-2.6V43.8c0-1,0.3-1.9,1.1-2.6c0.7-0.7,1.6-1.1,2.6-1.1h19.1c2.8,0,5.4,0.5,7.9,1.6
				c2.4,1.1,4.6,2.5,6.4,4.3c1.8,1.8,3.3,4,4.3,6.4c1.1,2.4,1.6,5,1.6,7.7c0,2.7-0.5,5.3-1.6,7.8c-1.1,2.5-2.5,4.6-4.3,6.4
				c-1.8,1.8-4,3.2-6.4,4.3c-2.4,1.1-5,1.6-7.9,1.6H771.6z M787.1,72.9c1.7,0,3.4-0.3,4.9-1c1.6-0.7,2.9-1.6,4.1-2.8
				c1.2-1.2,2.1-2.5,2.8-4c0.7-1.5,1-3.2,1-5c0-1.7-0.3-3.4-1-4.9c-0.7-1.6-1.6-2.9-2.8-4.1c-1.2-1.2-2.5-2.1-4.1-2.8
				c-1.6-0.7-3.2-1-4.9-1h-15.5v25.6H787.1z"/>
			<path fill="#DB4A26" d="M812.5,43.6c0-1,0.4-1.9,1.1-2.6c0.7-0.7,1.6-1.1,2.6-1.1c1,0,1.9,0.4,2.6,1.1c0.7,0.7,1.1,1.6,1.1,2.6
				v67.7c0,1-0.3,1.9-1.1,2.6c-0.7,0.7-1.6,1.1-2.6,1.1c-1,0-1.9-0.4-2.6-1.1c-0.7-0.7-1.1-1.6-1.1-2.6V43.6z"/>
			<path fill="#DB4A26" d="M825.5,77.7c0-5.2,1-10,2.9-14.5c2-4.5,4.6-8.5,8-11.9c3.4-3.4,7.3-6.1,11.8-8c4.5-2,9.4-2.9,14.6-2.9
				c5.2,0,10,1,14.6,2.9c4.5,2,8.5,4.6,11.9,8c3.4,3.4,6.1,7.4,8,11.9c2,4.5,2.9,9.4,2.9,14.5c0,5.2-1,10-2.9,14.6
				c-2,4.5-4.6,8.5-8,11.9c-3.4,3.4-7.4,6-11.9,8c-4.5,2-9.4,2.9-14.6,2.9c-5.2,0-10-1-14.6-2.9c-4.5-2-8.5-4.6-11.8-8
				c-3.4-3.4-6-7.3-8-11.9C826.5,87.7,825.5,82.8,825.5,77.7z M832.8,77.7c0,4.2,0.8,8.1,2.3,11.7c1.6,3.7,3.7,6.9,6.4,9.6
				c2.7,2.7,5.9,4.8,9.6,6.4c3.7,1.6,7.6,2.3,11.7,2.3c4.1,0,8.1-0.8,11.7-2.3c3.7-1.6,6.9-3.7,9.6-6.4c2.7-2.7,4.9-5.9,6.5-9.6
				c1.6-3.7,2.3-7.6,2.3-11.7c0-4.1-0.8-8.1-2.3-11.7c-1.6-3.7-3.7-6.9-6.5-9.6c-2.7-2.7-5.9-4.9-9.6-6.5c-3.7-1.6-7.6-2.4-11.7-2.4
				c-4.1,0-8.1,0.8-11.7,2.4c-3.7,1.6-6.9,3.7-9.6,6.5c-2.7,2.7-4.8,6-6.4,9.6C833.6,69.6,832.8,73.5,832.8,77.7z"/>
			<path fill="#DB4A26" d="M928.5,115c-2.2,0-4.5-0.3-6.9-0.9c-2.4-0.6-4.7-1.4-6.8-2.5c-2.2-1.1-4.1-2.3-5.9-3.8
				c-1.8-1.5-3.1-3.1-4-4.9c-0.5-0.9-0.7-1.9-0.4-2.9c0.3-1,0.9-1.7,1.8-2.3c0.9-0.5,1.9-0.7,2.9-0.4c1,0.3,1.7,0.9,2.3,1.8
				c0.7,1.4,1.7,2.6,3.1,3.7c1.4,1.1,2.9,2,4.5,2.7c1.6,0.7,3.3,1.3,5,1.6c1.7,0.4,3.2,0.5,4.5,0.5c2.1,0,4.2-0.4,6.2-1.2
				c2-0.8,3.8-1.8,5.3-3.2c1.5-1.3,2.8-2.9,3.7-4.8c0.9-1.8,1.4-3.8,1.4-5.9c0-2.1-0.4-4-1.2-5.5c-0.8-1.6-2-2.9-3.5-4.1
				c-1.5-1.2-3.2-2.2-5.3-3.2c-2-0.9-4.2-1.8-6.6-2.6c-2.3-0.7-4.8-1.6-7.5-2.6c-2.6-1.1-5-2.3-7.2-3.8c-2.2-1.5-3.9-3.2-5.3-5.2
				c-1.4-2-2.1-4.3-2.1-6.9c0-3,0.7-5.6,2-7.9c1.3-2.3,3-4.3,5.2-5.9c2.1-1.6,4.5-2.8,7.1-3.6c2.6-0.8,5.2-1.2,7.8-1.2
				c1.7,0,3.5,0.1,5.3,0.4c1.8,0.3,3.7,0.8,5.5,1.5c1.8,0.7,3.5,1.7,5.2,2.9c1.7,1.3,3.2,2.9,4.6,4.8c0.6,0.9,0.9,1.9,0.7,3.1
				c-0.2,1.2-0.7,2.1-1.6,2.6c-0.9,0.6-1.9,0.8-2.9,0.5c-1-0.3-1.8-0.9-2.3-1.8c-0.9-1.6-2-2.8-3.3-3.7c-1.3-0.9-2.5-1.6-3.8-2.1
				c-1.3-0.5-2.6-0.8-3.9-0.9c-1.3-0.1-2.4-0.2-3.5-0.2c-1.6,0-3.2,0.2-4.9,0.6c-1.7,0.4-3.3,1-4.8,1.9c-1.4,0.9-2.6,2-3.6,3.5
				c-0.9,1.5-1.4,3.3-1.4,5.5c0,1.6,0.7,3,2.1,4.2c1.4,1.2,3,2.3,5,3.3c2,0.9,4,1.8,6.1,2.5c2.1,0.7,3.9,1.3,5.4,1.9
				c3,1.1,5.7,2.3,8.1,3.5c2.4,1.2,4.5,2.7,6.3,4.5c1.8,1.7,3.1,3.7,4.1,6c1,2.3,1.5,5,1.5,8.1c0,3.1-0.7,6.1-2,8.8
				c-1.3,2.7-3.1,5.1-5.3,7.1c-2.2,2-4.8,3.6-7.7,4.7C934.6,114.4,931.6,115,928.5,115z"/>
		</g>
	</g>
	<g>
		<polygon fill="#DB4A26" points="81.7,152.5 157.7,96.2 110.4,62.3 		"/>
		<polygon fill="#DB4A26" points="2.5,96 79.4,151.3 97.1,95.8 		"/>
		<polygon fill="#DB4A26" points="32.8,3.4 4,93.6 62.2,93.4 		"/>
		<polygon fill="#DB4A26" points="128.6,2.5 33.9,3.9 52.6,59 		"/>
		<polygon fill="#DB4A26" points="159.6,94.6 129.3,4.9 82.5,39.5 		"/>
	</g>
</g>
</svg>
